<?xml version="1.0" encoding="UTF-8"?>
<svg id="Layer_1" xmlns="http://www.w3.org/2000/svg" version="1.1" viewBox="0 0 100 48">
  <!-- Generator: Adobe Illustrator 29.8.4, SVG Export Plug-In . SVG Version: 2.1.1 Build 6)  -->
  <defs>
    <style>
      .st0 {
        fill: #111;
      }
    </style>
  </defs>
  <path class="st0" d="M29.76,14.66c-4.44,0-8.05,3.62-8.05,8.08s3.61,8.08,8.05,8.08,8.05-3.62,8.05-8.08-3.61-8.08-8.05-8.08ZM29.76,27.66c-2.71,0-4.91-2.21-4.91-4.93s2.2-4.93,4.91-4.93,4.91,2.21,4.91,4.93-2.2,4.93-4.91,4.93Z"/>
  <path class="st0" d="M99.84,19.86v-4.85h-3.14v8.94c0,2.04-1.66,3.7-3.69,3.7s-3.69-1.66-3.69-3.7v-8.94h-3.14v8.94c0,3.78,3.06,6.85,6.83,6.85,1.36,0,2.63-.4,3.69-1.09v1.67c0,1.79-1.45,3.25-3.24,3.25v3.15c3.52,0,6.38-2.87,6.38-6.4v-11.52Z"/>
  <path class="st0" d="M14.24,18.74v3.15h2.34v5.46h-6.78c-1.63,0-3.17-.62-4.31-1.74-.02-.02-.04-.04-.06-.06-1.35-1.35-2.1-3.15-2.11-5.06,0-1.91.73-3.71,2.07-5.07,1.28-1.3,2.99-2.06,4.81-2.14,1.81-.08,3.56.53,4.94,1.7l2.03-2.4c-1.98-1.69-4.5-2.56-7.1-2.45-2.62.11-5.07,1.2-6.92,3.07C1.21,15.17.16,17.76.17,20.5s1.09,5.32,3.03,7.27c.03.03.06.06.09.09,1.74,1.7,4.05,2.63,6.5,2.63h9.93v-11.76h-5.48Z"/>
  <path class="st0" d="M70.97,18.15h4.81v12.34h3.14v-12.34h4.79v-3.15h-12.73v3.15h0Z"/>
  <path class="st0" d="M54.07,27.66c-3.96,0-7.18-3.23-7.18-7.2s3.22-7.2,7.18-7.2c2.47,0,4.74,1.25,6.07,3.35l2.65-1.68c-1.91-3.02-5.16-4.82-8.72-4.82-5.69,0-10.32,4.64-10.32,10.34s4.63,10.34,10.32,10.34c1.82,0,3.62-.48,5.19-1.4,1.52-.89,2.8-2.16,3.69-3.68l-2.7-1.6c-1.29,2.18-3.65,3.54-6.18,3.54h0Z"/>
  <path class="st0" d="M68.53,15.01h-3.14v15.49h3.14v-15.49Z"/>
  <path class="st0" d="M7.5,20.31c0,1.34,1.08,2.43,2.42,2.43s2.42-1.09,2.42-2.43-1.08-2.43-2.42-2.43-2.42,1.09-2.42,2.43Z"/>
</svg>