<?xml version="1.0" encoding="UTF-8"?>
<svg id="Layer_1" xmlns="http://www.w3.org/2000/svg" version="1.1" viewBox="0 0 132 43">
  <!-- Generator: Adobe Illustrator 29.8.4, SVG Export Plug-In . SVG Version: 2.1.1 Build 6)  -->
  <defs>
    <style>
      .st0 {
        fill: #111;
      }
    </style>
  </defs>
  <path class="st0" d="M8.4,20.42H1.31V6.97c0-.08-.01-.17-.05-.24-.03-.08-.08-.15-.14-.21-.06-.06-.13-.11-.21-.14-.08-.03-.16-.05-.25-.05-.09,0-.17.02-.26.05-.08.03-.15.08-.21.15-.06.06-.11.13-.14.21-.03.08-.05.16-.05.24v14.08c0,.17.06.34.19.46.06.06.14.11.22.14.08.03.17.05.25.05h7.74c.09,0,.17-.01.25-.04.08-.03.15-.08.21-.14.06-.06.11-.13.15-.21.03-.08.05-.16.05-.25,0-.08-.02-.17-.05-.25-.03-.08-.08-.15-.14-.21-.06-.06-.13-.11-.21-.14-.08-.03-.16-.05-.25-.04Z"/>
  <path class="st0" d="M24.91,7.58c.08,0,.17-.01.25-.04.08-.03.15-.08.21-.14.06-.06.11-.13.15-.21s.05-.17.05-.25c0-.08-.02-.17-.05-.25-.03-.08-.08-.15-.15-.21-.06-.06-.13-.11-.21-.14-.08-.03-.16-.05-.25-.05l-8.68-.02c-.09,0-.17.01-.25.04s-.15.08-.21.15c-.06.06-.11.13-.15.2-.03.08-.05.16-.05.25v14.14c0,.08.01.17.05.25.03.08.08.15.15.2.06.06.13.11.21.15.08.03.16.05.25.05h8.68c.09,0,.17-.01.25-.05.08-.03.15-.08.21-.15.06-.06.11-.13.15-.2.03-.08.05-.16.05-.25,0-.08-.01-.17-.05-.25-.03-.08-.08-.15-.15-.2-.06-.06-.13-.11-.21-.15-.08-.03-.16-.05-.25-.05h-8.02v-5.78h6c.09,0,.17-.01.25-.05.08-.03.15-.08.21-.14.06-.06.11-.13.15-.21.03-.08.05-.16.05-.25,0-.08-.02-.17-.05-.25-.03-.08-.08-.15-.15-.2-.06-.06-.13-.11-.21-.14-.08-.03-.17-.05-.25-.05h-6v-5.78l8.02.02Z"/>
  <path class="st0" d="M74.03,16.83h6.91l-3.45-8.19-3.45,8.19Z"/>
  <path class="st0" d="M46.53,15.52c-.64-.56-1.47-.85-2.33-.83h-4.69v5.75h4.67c.86.02,1.7-.28,2.34-.85.3-.25.55-.57.71-.92.17-.35.25-.74.25-1.13,0-.39-.08-.77-.24-1.12-.16-.35-.41-.66-.71-.9Z"/>
  <path class="st0" d="M46.22,12.53c.3-.26.55-.58.71-.94.17-.36.25-.75.25-1.15,0-.38-.08-.77-.24-1.11-.16-.35-.41-.66-.71-.9-.65-.55-1.48-.84-2.34-.82l-4.38.02v5.79h4.38c.86,0,1.7-.3,2.33-.88Z"/>
  <path class="st0" d="M31.89,0v43l100.11-15.62V0H31.89ZM47.44,20.49c-.88.82-2.05,1.26-3.26,1.23h-5.32c-.09,0-.17-.01-.25-.05-.08-.03-.15-.08-.21-.15-.06-.06-.11-.13-.15-.2-.03-.08-.05-.16-.05-.25V6.97c0-.08.01-.17.05-.24.03-.08.08-.15.14-.21.06-.06.13-.11.21-.14s.17-.05.25-.05l5.04-.02c1.2-.03,2.38.4,3.27,1.19.42.36.76.82.99,1.32.23.51.35,1.06.34,1.61,0,.71-.19,1.4-.55,2.01-.35.61-.85,1.12-1.45,1.49.68.34,1.26.85,1.67,1.48.41.63.63,1.37.62,2.12,0,.56-.11,1.11-.35,1.62-.23.51-.58.96-1.01,1.33h0ZM65.06,21.54c-.06.06-.13.11-.21.14-.08.03-.16.05-.25.04h-7.74c-.09,0-.17-.01-.25-.05-.08-.03-.15-.08-.22-.14-.12-.12-.19-.29-.19-.46V7c0-.08.01-.17.05-.24.03-.08.08-.15.14-.21.06-.06.13-.11.21-.15.08-.03.17-.05.26-.05.09,0,.17.02.25.05.08.03.15.08.21.14.06.06.11.13.14.21.03.08.05.16.05.24v13.45h7.09c.09,0,.17.01.25.04.08.03.15.08.21.14.06.06.11.13.15.21s.05.16.05.25c0,.09-.02.17-.05.25-.03.08-.08.15-.15.21h0ZM84.03,21.33c-.03.08-.08.15-.14.21-.06.06-.13.11-.21.13-.08.04-.16.05-.25.05-.13,0-.26-.03-.37-.1-.11-.07-.19-.18-.23-.3l-1.36-3.2h-7.98l-1.36,3.2c-.04.12-.12.23-.23.3-.11.07-.24.11-.37.1-.09,0-.17-.02-.25-.05-.08-.03-.15-.07-.21-.13-.06-.06-.11-.13-.14-.21-.04-.08-.05-.16-.05-.25s.02-.17.05-.25l1.52-3.6h0s4.43-10.51,4.43-10.51c.02-.04.03-.07.06-.12l.04-.04s.04-.04.04-.05c0,0,.03-.02.05-.04.04-.03.05-.04.04-.03.07-.05.15-.08.23-.1h.05s.07-.01.08-.01c.02,0,.04,0,.07.01h.06c.09.01.17.05.24.1l.04.03s.05.04.05.04c.02.02.03.03.05.05.03.04.04.05.04.04.02.04.04.08.05.12l4.43,10.49h0s1.52,3.61,1.52,3.61c.04.08.06.16.06.25s-.02.17-.05.25h0ZM103.18,21.08v.04s0,.04-.01.06c0,.02,0,.04-.01.05,0,.02-.01.04-.02.06,0,.02-.02.04-.02.06,0,.02-.02.04-.03.05,0,.01-.02.03-.03.05s-.03.04-.04.05c0,0-.02.02-.04.04-.01,0-.02.02-.04.03,0,0-.01,0-.02.02,0,0-.02.02-.03.02-.02.01-.04.02-.07.03-.02,0-.03.02-.04.02-.02,0-.05.01-.08.02-.01,0-.03,0-.04.01-.04,0-.08.01-.12.01-.04,0-.09,0-.13-.01h-.04s-.06-.04-.09-.04c-.01-.01-.03-.02-.05-.03-.03-.01-.05-.03-.08-.04-.01-.01-.03-.02-.04-.03l-.06-.06h-.01s-.01-.02-.01-.02l-10-12.67v12.27c0,.08-.01.17-.05.25s-.08.15-.15.2c-.06.06-.13.11-.21.15-.08.03-.17.05-.25.05-.09,0-.17-.02-.25-.05-.08-.03-.15-.08-.21-.15-.06-.06-.11-.13-.15-.2-.03-.08-.05-.16-.05-.25V6.93c0-.14.03-.27.11-.38.08-.11.2-.19.33-.23.13-.05.27-.06.41-.02.13.04.25.12.33.24l10.01,12.67V6.93c0-.08.01-.17.04-.24.03-.08.08-.15.14-.21.06-.06.13-.11.21-.14.08-.03.16-.05.25-.05.09,0,.17.02.26.05.08.03.15.08.22.15.06.06.11.13.14.21.03.08.05.16.04.24v14.15ZM125.76,21.53c-.06.06-.13.11-.22.14-.08.03-.17.05-.25.05-.09,0-.17-.02-.25-.05-.08-.03-.15-.08-.21-.14l-1.79-1.76-.93-.91-1.64-1.61c-.06-.06-.11-.13-.14-.21-.03-.08-.05-.16-.05-.24,0-.08.01-.17.05-.24.03-.08.08-.15.14-.21.06-.06.13-.11.21-.14.08-.03.16-.05.25-.05.09,0,.17.02.26.05.08.03.15.08.21.15l1.61,1.58c.9-1.11,1.38-2.49,1.37-3.91.01-.85-.15-1.69-.48-2.47s-.82-1.49-1.44-2.08c-.6-.61-1.32-1.09-2.11-1.42-.79-.33-1.65-.49-2.51-.47-.86-.01-1.71.15-2.51.47-.8.33-1.51.81-2.11,1.42-.62.59-1.11,1.3-1.43,2.08-.33.78-.49,1.62-.48,2.47-.01.85.15,1.68.48,2.47.33.78.82,1.49,1.43,2.08.6.61,1.32,1.08,2.11,1.41.79.32,1.65.48,2.51.47.99.01,1.97-.21,2.86-.64l.17-.08c.14-.1.31-.15.48-.15.09,0,.17.03.25.07.08.04.14.09.2.16.06.07.1.14.13.22.03.08.04.17.03.26,0,.08-.02.17-.06.24-.04.08-.09.14-.15.2l-.05.03c-1.17.66-2.5.99-3.84.98-1.03.02-2.06-.18-3.01-.57-.95-.39-1.82-.97-2.53-1.7-.74-.7-1.33-1.55-1.73-2.49-.4-.94-.59-1.94-.58-2.96-.01-1.02.18-2.02.58-2.96.4-.94.99-1.79,1.73-2.49.72-.73,1.58-1.3,2.53-1.69.95-.39,1.98-.58,3.01-.56,1.03-.02,2.06.18,3.01.57.96.39,1.82.96,2.54,1.69.74.71,1.32,1.56,1.72,2.5.39.94.59,1.95.57,2.96.02,1.76-.6,3.47-1.73,4.84l1.81,1.78c.06.06.11.13.14.21.03.08.05.16.05.24,0,.08-.01.17-.05.24-.03.08-.08.15-.14.21h0Z"/>
</svg>