<?xml version="1.0" encoding="UTF-8"?>
<svg id="Layer_1" xmlns="http://www.w3.org/2000/svg" version="1.1" viewBox="0 0 316 300">
  <!-- Generator: Adobe Illustrator 29.8.4, SVG Export Plug-In . SVG Version: 2.1.1 Build 6)  -->
  <defs>
    <style>
      .st0 {
        fill: #111;
      }
    </style>
  </defs>
  <path id="Sky_x5F_Logo" class="st0" d="M216.21,241.2c2.48,1.22,7.57,2.82,14.1,2.98,11.12.16,17.09-4.05,21.47-13.86l59.21-131.25c-2.48-1.22-7.91-2.82-12.34-2.82-7.57-.16-17.77,1.38-24.3,16.85l-19.25,44.93-37.52-60.9c-2.48-.72-8.47-1.76-12.68-1.76-13.38,0-20.79,4.93-28.34,13.14l-36.64,39.66,29.43,45.99c5.47,8.41,12.5,12.64,24.14,12.64,7.57,0,13.9-1.76,16.93-3.16l-35.46-52.8,25.02-26.48,41.22,64.22-25.02,52.64.02-.02h0ZM138.53,191.5c0,9.64-3.87,15.24-22.92,15.24-2.48,0-4.77-.16-6.87-.5V77.82c0-9.82,3.33-20.01,22.54-20.01,2.48,0,4.93.16,7.25.72v132.99-.02ZM99.23,172.05c0,18.07-11.8,31.25-35.92,33.85-17.43,1.94-42.79-.34-54.79-1.76-.34-1.94-.72-4.39-.72-6.31,0-15.78,8.47-19.29,16.55-19.29s21.47,1.38,31.37,1.38c10.74,0,14.1-3.71,14.1-7.03,0-4.55-4.21-6.31-12.68-8.09l-22.92-4.39c-19.03-3.49-29.23-16.67-29.23-30.53,0-16.85,11.96-31.07,35.58-33.51,17.77-1.94,39.62.16,51.62,1.76.34,1.94.72,4.05.72,6.15,0,15.78-8.29,19.11-16.39,19.11-6.15,0-15.66-1.06-26.78-1.06s-15.66,2.98-15.66,6.83c0,4.05,4.43,5.61,11.46,6.83l21.85,4.05c22.11,3.75,31.79,16.39,31.79,32.01h.05Z"/>
</svg>