<?xml version="1.0" encoding="UTF-8"?>
<svg id="Layer_1" xmlns="http://www.w3.org/2000/svg" version="1.1" viewBox="0 0 1620.36 1080">
  <!-- Generator: Adobe Illustrator 29.8.4, SVG Export Plug-In . SVG Version: 2.1.1 Build 6)  -->
  <defs>
    <style>
      .st0 {
        fill: #111;
      }
    </style>
  </defs>
  <path class="st0" d="M1598.97,381.69c0,15.5-13.39,29.89-27.9,29.89-11.16,0-18.48-7.69-18.36-18.97,0-15.5,13.39-29.89,27.9-29.89,11.16,0,18.48,7.69,18.36,18.98h0ZM1580.74,367.55c-11.9,0-23.19,12.28-23.19,25.18-.12,8.68,5.08,14.01,13.39,14.01,3.1,0,6.2-.87,8.93-2.23l-5.21-12.9c-.87-1.99.62-4.09,2.36-4.09,8.68,0,8.19-11.54,1.49-11.54-4.46,0-7.19,1.36-8.93,4.59-.87,1.49-1.86,2.11-3.23,1.61-1.36-.5-1.86-1.74-.99-3.35,2.6-4.96,6.94-7.32,13.15-7.32,11.66,0,13.02,17.49.99,20.09l4.22,10.42c6.08-4.84,10.42-12.53,10.42-20.46.12-8.68-5.08-14.01-13.39-14.01h-.01ZM1565.36,397.07l5.08-14.26c.62-1.74,1.61-2.36,2.98-1.86,1.36.5,1.86,1.61,1.24,3.35l-5.08,14.26c-.62,1.74-1.61,2.36-2.98,1.86-1.36-.5-1.86-1.61-1.24-3.35Z"/>
  <path class="st0" d="M429.49,331.87c12.36-14.71,25.25-22.17,38.32-22.17,4.18,0,7.88-1.5,10.72-4.34,2.84-2.84,4.34-6.54,4.34-10.72s-1.63-8-4.73-10.86c-3.02-2.78-6.66-4.2-10.81-4.2-20.21,0-38.94,9.25-55.66,27.49-16.05,17.51-30.58,39.25-43.18,64.62-12.48,25.12-27.67,59.31-45.17,101.63-16.48,39.92-30.78,72.47-42.51,96.73-11.58,23.93-24.56,44.36-38.57,60.71-13.31,15.53-27.18,23.4-41.23,23.4-10.4,0-24.22-4.1-24.22-39.55,0-13.89,4.06-36.92,12.06-68.46,8.09-31.9,17.66-65.41,28.42-99.6,10.32-32.79,19.31-58.95,26.74-77.82,18.25-5.16,38.18-11.91,51.39-20.56,14.85-9.72,22.38-20.88,22.38-33.16,0-9.1-3.21-16.63-9.54-22.38-6.19-5.63-18.17-8.73-27.72-8.73-12.65,0-24.48,6.31-35.17,18.75-9.53,11.09-17.45,24.46-23.56,39.77l-38.36,6.69c-31.94,4.79-59.04,10.23-80.52,16.16-22,6.08-41.31,15.91-57.42,29.23-16.78,13.87-25.29,32.97-25.29,56.78,0,19.38,5.9,35.88,17.54,49.05,11.79,13.36,26.91,20.13,44.94,20.13,4.55,0,8.24-1.38,10.96-4.1,2.57-2.57,4.1-5.91,4.55-9.92l.03-.56c0-4.15-1.41-7.79-4.2-10.82-2.85-3.09-6.61-4.72-10.86-4.72-9.14,0-16.7-3.46-23.11-10.57-6.55-7.25-9.73-16.26-9.73-27.54,0-16.03,6.23-28.42,19.05-37.89,13.46-9.94,29.31-17.24,47.1-21.69,18.34-4.58,42.53-9.31,71.9-14.04,8.06-1.27,14.93-2.38,20.77-3.35-13.67,37.62-27.36,80.57-40.73,127.82-14.43,50.98-21.74,88.83-21.74,112.49,0,22.43,4.5,39.65,13.37,51.19,9.18,11.94,22.96,18,40.97,18,21.15,0,40.75-9.56,58.27-28.42,16.85-18.15,32.03-40.62,45.12-66.79s28.7-61.11,46.85-104.74c16.48-39.62,30.54-71.53,41.8-94.83,11.09-22.96,23.35-42.51,36.45-58.11h-.01ZM268.44,320.98c4.67-5.19,8.85-7.93,12.09-7.93.67,0,2.9,0,3.91.98.75.73.79,2.05.79,2.72,0,.62-.46,4.02-9.44,10.57h0c-4.75,2.77-11.14,4.18-15.88,5.13,2.61-4.23,5.46-8.07,8.53-11.48h0Z"/>
  <path class="st0" d="M1562.97,543.01l-.35-.14c-3.71-1.39-7.47-1.39-11.17,0-3.77,1.41-6.62,4.01-8.47,7.72l-.12.25c-12.76,29.55-26.78,51.55-41.68,65.38-14.67,13.61-30.56,20.22-48.57,20.22-12.97,0-23.01-3.32-29.83-9.87-6.86-6.57-10.19-15.65-10.19-27.76,0-9.23,1.45-19.26,4.3-29.85,32.12-8.08,60.9-20.13,85.59-35.86,26.49-16.87,39.92-37.95,39.92-62.66,0-12.68-4.39-22.76-13.06-29.95-8.39-6.96-19.38-10.49-32.65-10.49-19.25,0-37.81,9.48-55.16,28.18-16.77,18.07-30.71,40.32-41.43,66.15-4.09,9.86-7.48,19.46-10.17,28.76-12.19,25.42-28.22,46.61-41.06,62.45-11.4,14.06-23.84,20.9-38.03,20.9-3.23,0-5.55-1.05-7.3-3.33-2.01-2.59-3.03-6.56-3.03-11.79,0-6.54,1.79-16.24,5.32-28.83,1.75-6.24,4.25-14.27,7.47-24.01.32-.73.65-1.46.97-2.2l.16-.41c.48-1.45.81-2.68,1-3.76,3.03-8.97,6.57-19.17,10.65-30.59,12.01-33.57,14.69-40.64,15.22-41.87l10.47-30.5h35.71c4.18,0,7.88-1.5,10.72-4.34s4.34-6.54,4.34-10.72c0-3.83-1.41-7.31-4.2-10.34-2.85-3.09-6.61-4.72-10.86-4.72h-24.96c2.97-8.23,6.41-17.96,10.28-29.04,4.86-13.95,8.16-23.69,9.82-28.96,1.83-4.74,1.18-9.47-1.87-13.69-3.02-4.17-7.32-6.38-12.43-6.38-6.91,0-11.98,3.56-14.29,10.03l-.03.1c-2.59,7.76-6.69,19.75-12.2,35.63-4.83,13.93-8.67,24.78-11.45,32.32h-33.41c-4.25,0-8,1.63-10.86,4.73-2.78,3.02-4.2,6.5-4.2,10.33,0,4.17,1.5,7.88,4.34,10.72s6.54,4.34,10.72,4.34h23.09l-22.02,61.74c-5.07,12.78-9.59,25.34-13.53,37.56-11.4,24.56-24.28,41.24-33.83,53.58-1.66,2.14-3.21,4.15-4.64,6.05-9.18,12.19-18.79,18.37-28.58,18.37-3.03,0-9.32,0-9.37-14.96.62-9.12,2-17.58,4.12-25.16l.07-.27c1.22-5.51,6.09-20.89,14.46-45.71,8.37-24.81,14.23-41.59,17.41-49.86l.08-.24c.49-1.49.73-3.26.73-5.39,0-7.15-3.35-12.38-9.43-14.72l-.22-.08c-4.77-1.59-10.91-3.53-18.25-5.76-18.08-6.12-31.19-11.02-39.08-14.63.65-2.05,1.33-4.17,2.06-6.34,1.32-3.97,2.41-7.74,3.23-11.2.88-3.74,1.33-7.27,1.33-10.49,0-10.76-2.91-19.6-8.64-26.26-5.92-6.87-18.05-10.36-28.14-10.36-9.29,0-17.39,3.3-24.08,9.8-6.73,6.54-10.14,15.4-10.14,26.34,0,15.92,11.85,30.02,27.35,41.97l-4.27,10.68s-24.12,55.75-32.66,71.44c-8.3,15.23-15.86,25.43-23.9,33.77-1.4,1.45-2.75,2.85-4.04,4.23-7.87,8.44-15.84,12.54-24.36,12.54-7.04,0-12.57-1.53-16.79-4.63-.03.04-.06.08-.08.12-.52-.38-1.03-.77-1.51-1.2,10.45-18.14,19.05-37.59,25.61-57.87,6.99-21.64,10.54-40.45,10.54-55.91s-4.61-29.63-13.7-39.95c-9.23-10.46-22.39-15.95-39.09-16.3h-.1c-13.16,0-26.08,4.6-38.41,13.67-11.99,8.83-23.23,21.97-33.39,39.02-14.32,23.42-24.96,46.55-31.87,69.22-8.23,17.4-18.27,34.22-28.09,47.56-6.43,8.61-13.58,17.33-21.47,26.13-15.06,16.79-33.3,29.69-54.33,38.45,13.21-37.44,25.1-71.03,35.65-100.66.15-.34.31-.68.46-1.02l.16-.42c.28-.84.5-1.56.67-2.2,14.66-41.18,26.66-74.53,35.86-99.7h34.83c3.83,0,7.31-1.41,10.34-4.2,3.09-2.85,4.72-6.61,4.72-10.86,0-3.91-1.54-7.43-4.58-10.49-3-2.99-6.62-4.57-10.47-4.57h-23.38c3.15-8.12,7.08-18.02,11.73-29.53l.04-.11c9.07-24.09,19.28-44.43,30.33-60.48,10.23-14.84,20.76-22.09,31.31-21.55h.25c5.21,0,8.85,1.94,11.45,6.08,2.76,5.35,7.53,8.29,13.46,8.29,1.55,0,3.43-.39,5.9-1.22l.48-.16.44-.26c6.8-3.96,8.23-9.49,8.23-13.42,0-2.51-.71-4.82-2.12-6.87-3.61-7.4-8.89-13.15-15.71-17.1-6.82-3.94-14.59-5.94-23.1-5.94-17.25,0-33.63,8.84-48.69,26.28-14.45,16.73-28.16,42.01-40.76,75.13l-15.54,40.84h-35.35c-4.25,0-8,1.63-10.86,4.73-2.78,3.02-4.2,6.5-4.2,10.33,0,4.17,1.5,7.88,4.34,10.72s6.54,4.34,10.72,4.34h23.92c-9.87,26.45-20.94,57.41-33.02,92.32-7.88,17.83-20.43,31.32-28.82,40.32l-.46.5c-7.87,8.44-15.84,12.54-24.36,12.54-1.8,0-3.49-.11-5.09-.31-5.41-.67-9.76-2.47-13.13-5.46,10.45-18.14,19.05-37.59,25.61-57.87,6.99-21.64,10.54-40.45,10.54-55.91s-4.61-29.63-13.7-39.95c-9.23-10.46-22.39-15.95-39.09-16.3h-.1c-13.16,0-26.08,4.6-38.41,13.67-11.99,8.83-23.23,21.97-33.39,39.02-14.32,23.42-24.96,46.55-31.87,69.22-8.36,17.68-18.77,33.5-28.74,46.94-4.5,6.06-8.91,11.65-13,16.7-11.4,14.06-23.84,20.9-38.03,20.9-3.23,0-5.55-1.05-7.3-3.33-2.01-2.59-3.02-6.56-3.02-11.79,0-5.97,2.7-21.43,15.55-61.16l26.3-75.57c3.48-9.2,8.49-23.24,14.88-41.76l24.89-72.75c1.41-3.81,1.16-7.81-.72-11.59-1.86-3.71-4.7-6.3-8.46-7.71l-.55-.17c-3.64-.91-7.3-.57-10.88.99-3.77,1.65-6.52,4.53-7.94,8.33l-24.95,72.92-14.37,41.19-25.67,73.33c-.2.34-.4.69-.58,1.05l-.12.25c-10.87,25.18-28.36,50.43-46.79,67.53-14.67,13.61-30.56,20.22-48.57,20.22-12.97,0-23.01-3.32-29.83-9.87-6.86-6.57-10.19-15.65-10.19-27.76,0-9.23,1.45-19.26,4.3-29.85,32.12-8.08,60.9-20.13,85.59-35.86,26.49-16.87,39.92-37.95,39.92-62.66,0-12.68-4.4-22.76-13.06-29.95-8.39-6.96-19.38-10.49-32.65-10.49-19.25,0-37.81,9.48-55.16,28.18-16.77,18.07-30.71,40.32-41.43,66.15-10.71,25.81-16.64,49.82-17.62,71.45-.68,21.09,5.18,38.34,17.41,51.26,12.26,12.96,29.19,19.53,50.33,19.53,25.4,0,48.18-8.63,67.71-25.66,3.11-2.71,7.61-6.89,12.92-12.51,1.07,9.87,4.46,18.29,10.12,25.1,7.19,8.67,17.27,13.06,29.95,13.06,21.83,0,40.9-9.03,56.67-26.83.39-.44.8-.9,1.2-1.36,3.95-4.51,8.29-9.67,12.8-15.43,2.18,21.72,12.69,43.63,46.2,43.63,11.86,0,24.12-4.42,36.42-13.13,10.65-7.54,20.61-17.11,29.66-28.48,5.49,3.82,11.39,6.65,17.65,8.47,5.65,1.65,11.6,2.49,17.82,2.49,9.42,0,18.35-2.26,26.71-6.72-4.88,13.62-10.42,29.08-16.64,46.4-10.05,2.55-21.74,4.87-34.8,6.9l-.13.02c-56.43,10.35-85.05,33.11-85.05,67.67,0,15.35,4.76,27.9,14.16,37.31,9.4,9.39,21.95,14.16,37.3,14.16,18.66,0,36.11-9.03,51.88-26.83,14.85-16.77,28.34-41.73,40.1-74.21,33.42-10.15,61.42-26.36,83.27-48.19,3.41-3.41,7.46-7.64,11.88-12.59,3.95-4.51,7.71-11.06,12.23-16.82,2.18,21.72,12.69,43.63,46.2,43.63,11.86,0,24.12-4.42,36.42-13.13,10.65-7.54,20.61-17.11,29.66-28.48,5.49,3.82,11.39,6.65,17.65,8.47.01-.03.03-.06.04-.09,5.69,1.68,11.67,2.52,17.94,2.52,15.65,0,29.96-6.2,42.52-18.42l1-.97c9.44-9.17,17.17-16.82,27.8-33.82,6.18-9.89,11.99-23.02,14.47-28.21l12.62-28.27c10.19-21.75,15-32.46,17.33-37.94,4.24,1.9,9.1,3.84,14.52,5.8,6.68,2.42,16.03,5.6,28.5,9.69-2.67,7.47-7,20.31-13.11,38.89-7.77,23.64-12.5,38.78-14.44,46.21-3.3,11.87-4.97,22.79-4.97,32.47,0,13.26,3.35,24.14,9.96,32.35,6.87,8.55,16.64,12.89,29.04,12.89h.48c17.41,0,33.51-8.4,47.85-24.96,1.95-2.25,4.1-4.73,6.41-7.48,1.6,7.43,4.66,13.92,9.19,19.37,7.19,8.67,17.27,13.06,29.95,13.06,21.83,0,40.9-9.03,56.67-26.83,5.16-5.83,11.05-12.87,17.19-20.95,2.69,10.94,7.75,20.4,15.19,28.26,12.26,12.96,29.19,19.53,50.33,19.53,25.4,0,48.18-8.63,67.71-25.66,19.13-16.68,36.88-42.88,52.76-77.86l.19-.49c.87-2.63,1.21-4.14,1.21-5.41,0-6.38-3.24-11.4-9.13-14.12v-.02h0ZM1458.74,484.02c12.19-15.87,24.96-23.91,37.95-23.91,5.42,0,9.62.88,12.48,2.62,1.34.82,3.11,2.5,3.11,7.71,0,13.92-8.62,26-26.36,36.94h0c-16.11,9.94-35.04,18.72-56.38,26.17,8.44-18.64,18.24-35.26,29.2-49.52h0ZM432.27,484.02c12.19-15.87,24.96-23.91,37.95-23.91,5.42,0,9.62.88,12.48,2.62,1.34.82,3.11,2.5,3.11,7.71,0,13.92-8.62,26-26.36,36.94h0c-16.11,9.94-35.04,18.72-56.38,26.17,8.44-18.64,18.24-35.26,29.2-49.52h0ZM733.68,560.81s-1.86-9.38-3.67-12.54c-2.46-4.3-7.09-6.18-12.23-6.18-3.65,0-5.63.57-8.42,2.66-2.89,2.17-5.96,6.26-6.52,9.67-1.97,7.95-.9,15.87.54,24.24,1.38,8.01,3.85,13.69,6.01,20.3-7.87,10.78-16.16,19.82-24.67,26.89-8.45,7.02-16.32,10.58-23.39,10.58-7.48,0-16.08-2.75-16.08-24.22,0-15.93,2.64-32.63,7.89-49.99.17-.36.34-.71.51-1.07l.21-.54c.51-1.53.85-2.82,1.03-3.94,6.2-18.73,15.38-38.21,27.51-58.33,7.03-11.92,14.66-21.5,22.68-28.46,7.48-6.5,15-9.79,22.35-9.79s12.49,2.11,16.82,6.44c4.33,4.33,6.44,10.62,6.44,19.22,0,10.67-2.41,23.51-6.28,38.4-2.8,10.75-6.13,23.39-10.73,36.65h0ZM736.84,754.3c-10.12,11.58-20.71,17.21-32.4,17.21-6.63,0-11.72-1.93-15.57-5.9-3.85-3.98-5.74-9.12-5.78-15.71.88-9.54,5.54-16.94,14.25-22.61,9.43-6.14,24.98-11.13,46.22-14.82,3.31-.51,9.31-1.68,17.91-3.48-7.12,19.49-15.39,34.71-24.65,45.31h.02ZM1006.46,542.14c-3.65,0-5.63.57-8.42,2.66-2.89,2.17-5.96,6.26-6.52,9.67-1.97,7.95-.9,15.87.54,24.24,1.38,8.01,3.85,13.69,6,20.3-7.87,10.78-16.16,19.82-24.67,26.89-8.45,7.02-16.32,10.58-23.39,10.58-7.48,0-16.08-2.75-16.08-24.22,0-15.93,2.64-32.63,7.89-49.99.17-.36.34-.71.51-1.07l.21-.54c.51-1.53.85-2.82,1.03-3.94,6.2-18.73,15.38-38.22,27.51-58.33,7.03-11.92,14.66-21.5,22.68-28.46,7.48-6.5,15-9.79,22.35-9.79s12.49,2.11,16.82,6.44c4.33,4.33,6.44,10.62,6.44,19.22,0,10.67-2.41,23.51-6.28,38.4-2.8,10.75-6.13,23.39-10.73,36.65-.03-.04-1.86-9.38-3.67-12.54-2.46-4.3-7.09-6.18-12.23-6.18h.01ZM1152.12,441.75c-2.1-1.23-3.57-2.57-5.1-4.04-2.64-2.53-4.16-6.47-4.16-9.48,0-3.3,4.14-9.13,9.29-3.87,1.06,1.08,2.78,3.97,2.9,7.64.08,2.4.19,4.75-2.93,9.75Z"/>
</svg>